# File created by Blade
# Date/Time:  Mon Nov 18 18:33:23 2013
# Frame Rate: 100.000 fps
#------------------------------------------------------
:FULLY-SPECIFIED
:DEGREES
226
root 52.891101 -3.832286 52.206067 -3.957745 0.758026 -126.115592
Spine 13.177455 -0.561468 -0.540778
Spine1 3.506298 1.560613 -1.327191
Spine2 0.736170 -1.211041 -1.403677
NeckDummy -0.000607 -0.151138 -0.020133 -1.397775 1.165160 -0.445138
Neck 14.893800 0.228551 27.564849
Head -0.305607 0.358775 0.187871 -34.152078 -4.144175 -0.682541
LeftShoulderDummy -0.061050 -0.141645 0.035078 -1.375439 1.042474 -0.226976
LeftShoulder 7.409125 -3.504530 14.505173
LeftArm 21.390462 50.536161 30.069867
LeftForeArm 90.200853
LeftForeArmRoll -37.048034
LeftHand -9.542253 5.640465 -4.635107
LeftHandThumb1 16.799985 12.633030
LeftHandIndex1 14.413122 43.594858
LeftHandPinky1 13.231800 48.028561
RightShoulderDummy -0.035979 -0.128991 0.057704 -1.419194 -1.161815 0.442719
RightShoulder 5.605557 4.771110 17.396189
RightArm -39.930652 69.767815 -2.897660
RightForeArm 112.876886
RightForeArmRoll 3.960814
RightHand -17.782178 -15.980947 11.500485
RightHandThumb1 -1.232513 13.098328
RightHandIndex1 13.787458 59.883621
RightHandPinky1 18.986240 68.978901
LeftUpLeg 4.145914 21.348603 -34.860695
LeftLeg 60.739660
LeftFoot 0.647172 -1.052179 -0.936986 -11.967905 11.066787 -15.060608
LeftToeBase -1.285918
RightUpLeg 10.161802 12.737275 -26.087190
RightLeg 67.201900
RightFoot -0.532867 0.451130 0.265614 -0.670492 7.127803 -33.888342
RightToeBase -1.118962
227
root 52.891255 -3.856458 52.206812 -3.956234 0.741936 -126.129425
Spine 13.181418 -0.574293 -0.539948
Spine1 3.507687 1.556501 -1.335084
Spine2 0.738424 -1.217215 -1.382341
NeckDummy -0.000727 -0.151474 -0.020044 -1.389546 1.149399 -0.443183
Neck 14.878087 0.231038 27.597785
Head -0.307631 0.356672 0.187181 -34.131161 -4.148589 -0.709775
LeftShoulderDummy -0.061457 -0.142103 0.034961 -1.367527 1.026823 -0.223872
LeftShoulder 7.392878 -3.484752 14.535442
LeftArm 21.466899 50.575944 30.129395
LeftForeArm 90.207350
LeftForeArmRoll -37.071229
LeftHand -9.531727 5.637644 -4.739990
LeftHandThumb1 16.817405 12.734709
LeftHandIndex1 14.502021 43.679618
LeftHandPinky1 13.819250 47.946150
RightShoulderDummy -0.035704 -0.129553 0.057213 -1.410785 -1.146499 0.441686
RightShoulder 5.611155 4.787609 17.388709
RightArm -39.908360 69.861307 -2.871491
RightForeArm 112.839941
RightForeArmRoll 3.913521
RightHand -17.715911 -16.155637 11.574275
RightHandThumb1 -0.959267 13.358903
RightHandIndex1 13.764295 61.028971
RightHandPinky1 18.777544 69.244010
LeftUpLeg 4.096537 21.387700 -34.962276
LeftLeg 60.922309
LeftFoot 0.644281 -1.054794 -0.929479 -12.002782 11.067006 -15.124468
LeftToeBase -1.313926
RightUpLeg 10.122087 12.714741 -26.157683
RightLeg 67.303867
RightFoot -0.534498 0.450356 0.270999 -0.800987 7.156790 -33.999262
RightToeBase -1.021303
228
root 52.891303 -3.877582 52.204265 -3.977299 0.696800 -126.132017
Spine 13.183095 -0.548530 -0.566035
Spine1 3.512363 1.566768 -1.385838
Spine2 0.787246 -1.278460 -1.297690
NeckDummy -0.001182 -0.151651 -0.021616 -1.405008 1.092652 -0.448070
Neck 14.867242 0.286909 27.637069
Head -0.307107 0.356342 0.188783 -34.158506 -4.184046 -0.685384
LeftShoulderDummy -0.060923 -0.141867 0.035521 -1.382373 0.970045 -0.233179
LeftShoulder 7.457404 -3.460257 14.542953
LeftArm 21.635744 50.548427 30.213256
LeftForeArm 90.219586
LeftForeArmRoll -37.043509
LeftHand -9.543063 5.669401 -4.731890
LeftHandThumb1 16.875294 12.760112
LeftHandIndex1 14.410134 43.645618
LeftHandPinky1 13.791483 48.057308
RightShoulderDummy -0.036281 -0.129566 0.055458 -1.425717 -1.090975 0.447450
RightShoulder 5.601983 4.768962 17.313133
RightArm -39.976659 69.959020 -2.889665
RightForeArm 112.779727
RightForeArmRoll 3.570765
RightHand -17.683467 -16.286363 11.357322
RightHandThumb1 -1.403160 13.589979
RightHandIndex1 14.223697 60.710117
RightHandPinky1 19.181677 69.246631
LeftUpLeg 4.047267 21.452257 -35.035759
LeftLeg 61.051298
LeftFoot 0.642091 -1.049102 -0.916837 -12.024876 11.152154 -15.157559
LeftToeBase -1.363818
RightUpLeg 10.177019 12.696664 -26.173042
RightLeg 67.429483
RightFoot -0.538473 0.450824 0.264858 -0.768288 7.126558 -34.118168
RightToeBase -0.970792
229
root 52.891702 -3.897658 52.198286 -3.999336 0.642684 -126.127575
Spine 13.203341 -0.538838 -0.572887
Spine1 3.511152 1.582582 -1.400714
Spine2 0.813291 -1.290558 -1.227397
NeckDummy -0.001641 -0.152115 -0.022453 -1.417297 1.041332 -0.441435
Neck 14.863582 0.299939 27.648087
Head -0.308838 0.354798 0.189215 -34.149008 -4.192439 -0.721414
LeftShoulderDummy -0.062540 -0.142474 0.035802 -1.395794 0.918100 -0.221257
LeftShoulder 7.398700 -3.477793 14.528870
LeftArm 21.573235 50.576218 30.142614
LeftForeArm 90.216538
LeftForeArmRoll -37.007127
LeftHand -9.542550 5.661750 -4.738442
LeftHandThumb1 16.891551 12.767309
LeftHandIndex1 14.401056 43.678613
LeftHandPinky1 13.732849 48.092260
RightShoulderDummy -0.036279 -0.130134 0.054048 -1.438108 -1.039843 0.441658
RightShoulder 5.638554 4.731065 17.332674
RightArm -39.850473 69.971149 -2.710040
RightForeArm 112.753085
RightForeArmRoll 3.570447
RightHand -17.694745 -16.500290 11.462463
RightHandThumb1 -1.282053 13.670190
RightHandIndex1 14.129071 61.159254
RightHandPinky1 19.171254 69.808342
LeftUpLeg 4.004300 21.535365 -35.102787
LeftLeg 61.170553
LeftFoot 0.639356 -1.048794 -0.920029 -11.934898 11.111374 -15.193084
LeftToeBase -1.416862
RightUpLeg 10.223977 12.653058 -26.172300
RightLeg 67.510466
RightFoot -0.543174 0.451130 0.265685 -0.717271 7.110686 -34.199350
RightToeBase -1.030802
230
root 52.891558 -3.917929 52.196330 -3.998591 0.619087 -126.121055
Spine 13.206215 -0.550912 -0.575029
Spine1 3.509742 1.589440 -1.417263
Spine2 0.804319 -1.280838 -1.227035
NeckDummy -0.001512 -0.154222 -0.021977 -1.416915 1.039629 -0.439224
Neck 14.896985 0.309029 27.660436
Head -0.309130 0.356549 0.190316 -34.209363 -4.182526 -0.709975
LeftShoulderDummy -0.061415 -0.144338 0.036316 -1.395334 0.917427 -0.222941
LeftShoulder 7.418054 -3.488044 14.510375
LeftArm 21.616380 50.598273 30.133648
LeftForeArm 90.223178
LeftForeArmRoll -36.991983
LeftHand -9.627547 5.779463 -4.745570
LeftHandThumb1 16.977761 12.904626
LeftHandIndex1 14.394807 43.475088
LeftHandPinky1 13.785924 48.001351
RightShoulderDummy -0.035730 -0.132297 0.054567 -1.437569 -1.038919 0.440958
RightShoulder 5.675530 4.731617 17.318672
RightArm -39.818361 70.011615 -2.717021
RightForeArm 112.764950
RightForeArmRoll 3.629403
RightHand -17.682488 -16.254994 11.649390
RightHandThumb1 -0.841678 13.368143
RightHandIndex1 13.670729 60.886289
RightHandPinky1 18.647347 69.159965
LeftUpLeg 4.004001 21.586165 -35.184642
LeftLeg 61.259187
LeftFoot 0.653578 -1.053846 -0.947199 -11.989223 10.931917 -15.228698
LeftToeBase -1.344307
RightUpLeg 10.230876 12.643214 -26.202167
RightLeg 67.579913
RightFoot -0.538879 0.447763 0.270662 -0.726655 7.146001 -34.269383
RightToeBase -1.009530
231
root 52.893374 -3.940239 52.192860 -4.040235 0.567810 -126.110379
Spine 13.261607 -0.565024 -0.546731
Spine1 3.537826 1.584827 -1.360164
Spine2 0.761196 -1.175457 -1.353910
NeckDummy -0.001369 -0.157515 -0.020804 -1.387250 1.124067 -0.424198
Neck 14.911813 0.251817 27.604892
Head -0.308926 0.359034 0.188260 -34.203529 -4.156661 -0.718958
LeftShoulderDummy -0.060982 -0.147534 0.034892 -1.364896 1.000932 -0.205816
LeftShoulder 7.397078 -3.513400 14.439138
LeftArm 21.639798 50.668145 30.141327
LeftForeArm 90.217996
LeftForeArmRoll -36.956797
LeftHand -9.552885 5.611936 -4.702580
LeftHandThumb1 17.144691 12.920708
LeftHandIndex1 14.290213 43.729379
LeftHandPinky1 13.715306 48.183754
RightShoulderDummy -0.035280 -0.135936 0.056069 -1.408170 -1.122276 0.424649
RightShoulder 5.585590 4.817238 17.363577
RightArm -39.912345 70.085555 -2.760393
RightForeArm 112.745246
RightForeArmRoll 3.514342
RightHand -17.707505 -16.518120 11.615855
RightHandThumb1 -0.946324 13.690589
RightHandIndex1 13.897126 61.222109
RightHandPinky1 19.091230 70.086111
LeftUpLeg 3.944181 21.654771 -35.238594
LeftLeg 61.386481
LeftFoot 0.653313 -1.053725 -0.948221 -12.012655 10.917653 -15.306370
LeftToeBase -1.310824
RightUpLeg 10.280344 12.608042 -26.188245
RightLeg 67.703079
RightFoot -0.546886 0.446500 0.262160 -0.718978 7.117211 -34.386698
RightToeBase -1.003878
232
root 52.896080 -3.961016 52.190900 -4.042546 0.525265 -126.091042
Spine 13.269055 -0.553190 -0.554602
Spine1 3.546833 1.587706 -1.373892
Spine2 0.770942 -1.181656 -1.331369
NeckDummy -0.000967 -0.158219 -0.020965 -1.390568 1.109458 -0.430506
Neck 14.873828 0.282573 27.598532
Head -0.306402 0.357931 0.188687 -34.167189 -4.168088 -0.680544
LeftShoulderDummy -0.060783 -0.148374 0.035108 -1.368295 0.986568 -0.212962
LeftShoulder 7.381711 -3.506369 14.441229
LeftArm 21.658295 50.676470 30.175837
LeftForeArm 90.207407
LeftForeArmRoll -36.964897
LeftHand -9.533996 5.717471 -4.743155
LeftHandThumb1 17.043615 12.896523
LeftHandIndex1 14.333362 43.480247
LeftHandPinky1 13.721399 47.991484
RightShoulderDummy -0.035408 -0.136464 0.055607 -1.411881 -1.107225 0.429879
RightShoulder 5.646880 4.785270 17.384807
RightArm -39.753761 70.093876 -2.590616
RightForeArm 112.748609
RightForeArmRoll 3.455420
RightHand -17.662898 -16.662818 11.682725
RightHandThumb1 -0.868222 13.687747
RightHandIndex1 13.937461 61.642107
RightHandPinky1 18.997447 69.827728
LeftUpLeg 3.877213 21.706708 -35.325243
LeftLeg 61.493606
LeftFoot 0.686246 -1.032719 -0.925869 -13.298730 11.241348 -15.605152
LeftToeBase -0.083525
RightUpLeg 10.272502 12.569824 -26.237943
RightLeg 67.797262
RightFoot -0.540196 0.452759 0.270612 -0.590313 7.151969 -34.435098
RightToeBase -1.034903
233
root 52.898656 -3.981904 52.188468 -4.034721 0.490110 -126.073060
Spine 13.260090 -0.559553 -0.555034
Spine1 3.545699 1.596271 -1.382893
Spine2 0.778728 -1.159323 -1.363099
NeckDummy -0.000826 -0.159790 -0.021174 -1.380079 1.130557 -0.427260
Neck 14.898381 0.289133 27.588872
Head -0.307324 0.357236 0.190307 -34.172329 -4.206637 -0.698428
LeftShoulderDummy -0.060557 -0.149997 0.033688 -1.358504 1.008464 -0.209924
LeftShoulder 7.376715 -3.528766 14.446709
LeftArm 21.675164 50.670103 30.216573
LeftForeArm 90.175811
LeftForeArmRoll -36.915821
LeftHand -9.541108 5.690892 -4.734412
LeftHandThumb1 17.041774 12.869428
LeftHandIndex1 14.260927 43.455703
LeftHandPinky1 13.708198 47.965764
RightShoulderDummy -0.035184 -0.138092 0.055520 -1.401036 -1.128407 0.426426
RightShoulder 5.644730 4.789007 17.363680
RightArm -39.736036 70.110624 -2.618621
RightForeArm 112.770944
RightForeArmRoll 3.749449
RightHand -17.800598 -15.995948 11.829626
RightHandThumb1 -0.913968 13.311865
RightHandIndex1 13.557340 60.615641
RightHandPinky1 18.494563 68.937787
LeftUpLeg 3.803533 21.739565 -35.422905
LeftLeg 61.589257
LeftFoot 0.651539 -1.050985 -0.956802 -12.026110 10.894672 -15.374234
LeftToeBase -1.338238
RightUpLeg 10.273043 12.529993 -26.291258
RightLeg 67.907521
RightFoot -0.541387 0.446575 0.268033 -0.657597 7.217847 -34.508224
RightToeBase -0.985931
